<?xml version="1.0" standalone="no"?>
<!DOCTYPE svg PUBLIC "-//W3C//DTD SVG 20010904//EN"
 "http://www.w3.org/TR/2001/REC-SVG-20010904/DTD/svg10.dtd">
<svg version="1.0" xmlns="http://www.w3.org/2000/svg"
 width="126.000000pt" height="126.000000pt" viewBox="0 0 126.000000 126.000000"
 preserveAspectRatio="xMidYMid meet">
<metadata>
Created by potrace 1.11, written by Peter Selinger 2001-2013
</metadata>
<g transform="translate(0.000000,126.000000) scale(0.100000,-0.100000)"
fill="#000000" stroke="none">
<path d="M113 1074 c-149 -95 -134 -290 27 -363 72 -33 190 -23 190 16 0 10
-14 12 -65 7 -75 -7 -114 4 -162 49 -86 80 -59 219 52 271 121 58 270 -40 259
-168 -2 -32 1 -46 12 -50 20 -8 37 38 30 86 -16 113 -110 188 -232 185 -51 -1
-70 -7 -111 -33z"/>
<path d="M281 1036 c-9 -11 -8 -23 5 -55 9 -23 14 -44 11 -47 -2 -3 -21 4 -40
15 -33 18 -38 19 -52 5 -14 -14 -10 -19 42 -45 69 -34 75 -35 90 -10 10 15 8
30 -9 77 -25 71 -31 79 -47 60z"/>
<path d="M772 1037 c-8 -10 -5 -16 11 -26 15 -9 18 -10 10 -1 -6 7 -9 19 -6
26 7 18 -1 18 -15 1z"/>
<path d="M527 1003 c-13 -12 -7 -43 9 -43 8 0 13 4 10 9 -3 5 1 11 9 15 8 3
15 10 15 16 0 11 -33 14 -43 3z"/>
<path d="M728 989 c-10 -5 -18 -15 -18 -20 0 -6 5 -7 10 -4 6 4 19 1 28 -7 15
-11 15 -11 5 3 -10 12 -10 18 -1 27 15 15 -1 15 -24 1z"/>
<path d="M770 963 c0 -32 12 -43 25 -23 3 6 1 10 -5 10 -6 0 -9 4 -6 8 2 4 1
14 -5 22 -6 11 -9 6 -9 -17z"/>
<path d="M562 964 c-20 -13 -22 -23 -18 -65 2 -27 1 -47 -3 -45 -3 2 -15 0
-26 -5 -17 -7 -18 -8 -2 -9 9 -1 31 -2 47 -2 83 0 111 3 106 10 -2 4 -25 7
-49 5 -50 -3 -74 15 -62 44 5 10 10 27 12 38 2 10 9 22 15 27 7 4 10 9 7 12
-3 3 -15 -1 -27 -10z"/>
<path d="M812 950 c7 -10 14 -18 15 -16 6 6 -9 36 -18 36 -5 0 -4 -9 3 -20z"/>
<path d="M620 910 c0 -12 35 -31 44 -23 3 3 -2 12 -12 19 -20 16 -32 17 -32 4z"/>
<path d="M130 875 l-33 -34 46 -50 46 -49 36 39 c38 43 41 75 9 110 -27 30
-66 24 -104 -16z m80 -25 c11 -20 4 -50 -12 -50 -5 0 -19 12 -32 27 -21 25
-22 29 -8 39 20 14 39 8 52 -16z"/>
<path d="M605 881 c-6 -11 9 -23 19 -14 9 9 7 23 -3 23 -6 0 -12 -4 -16 -9z"/>
<path d="M270 864 c0 -8 5 -12 10 -9 6 3 10 10 10 16 0 5 -4 9 -10 9 -5 0 -10
-7 -10 -16z"/>
<path d="M776 858 c-10 -5 -35 -8 -57 -6 -21 2 -39 0 -39 -4 0 -5 12 -8 28 -9
15 0 44 -1 65 -2 23 -1 37 2 37 10 0 18 -13 22 -34 11z"/>
<path d="M293 833 c-7 -3 -13 -18 -13 -34 0 -24 6 -32 29 -40 33 -12 44 -38
26 -63 -7 -9 -10 -31 -8 -49 12 -81 15 -117 10 -117 -3 0 -19 13 -37 30 -37
35 -97 55 -134 46 -14 -3 -41 -19 -58 -35 -30 -26 -33 -34 -32 -85 2 -123 110
-220 259 -230 83 -5 232 45 298 100 39 33 57 57 74 103 13 34 14 31 10 -51
l-5 -87 35 4 c39 3 53 13 36 23 -17 11 -24 59 -10 70 7 5 20 8 30 7 9 -2 17 1
17 6 0 5 -7 10 -15 10 -8 1 -21 2 -27 3 -11 1 -14 17 -9 64 2 18 38 15 50 -5
9 -15 12 -16 20 -3 5 8 7 18 5 22 -7 11 -2 10 40 -7 89 -37 226 -4 226 55 0
24 -16 34 -59 35 -29 2 -35 7 -46 37 -15 46 -4 71 28 59 12 -5 33 -4 46 0 22
9 22 10 7 34 -9 13 -16 32 -16 42 0 24 -37 48 -54 34 -7 -6 -17 -6 -26 -1 -20
13 -77 13 -85 0 -4 -7 -12 -7 -25 0 -32 17 -57 11 -83 -19 l-24 -29 -22 29
c-39 53 -110 48 -145 -11 l-17 -30 -25 29 c-28 34 -55 41 -163 46 -43 1 -83 5
-87 7 -5 3 -15 3 -21 1z m627 -166 c0 -13 -5 -28 -11 -34 -16 -16 -3 -31 31
-40 22 -6 27 -11 20 -23 -13 -22 -60 -2 -87 38 -25 37 -22 54 10 70 32 16 37
14 37 -11z m-116 -93 c14 -18 26 -33 26 -35 0 -2 -25 -4 -55 -4 -30 0 -55 1
-55 3 0 2 9 15 19 29 11 13 17 31 14 40 -9 23 19 5 51 -33z m-283 13 c45 -30
52 -73 14 -83 -37 -9 -75 28 -75 73 0 40 14 42 61 10z m-194 -103 c3 -9 -1
-28 -10 -43 -14 -24 -14 -31 -2 -54 12 -24 12 -27 -3 -27 -43 1 -88 64 -73
104 14 35 77 49 88 20z m166 -54 c-14 -14 -46 -16 -50 -3 -2 6 4 13 14 15 24
6 47 -3 36 -12z"/>
<path d="M856 477 c-11 -8 -16 -21 -13 -33 5 -18 5 -17 12 4 8 24 45 31 45 8
0 -8 -16 -27 -35 -42 -22 -17 -35 -35 -35 -50 0 -30 32 -49 60 -34 14 8 20 8
20 0 0 -6 8 -10 17 -8 14 2 16 14 14 73 -1 39 -6 74 -10 78 -14 15 -57 17 -75
4z m40 -123 c-3 -8 -10 -14 -16 -14 -14 0 -13 37 2 63 13 22 13 22 16 -6 2
-16 1 -35 -2 -43z"/>
<path d="M972 481 c-14 -10 -9 -151 5 -151 7 0 16 -1 20 -2 5 -2 9 26 11 61 2
69 9 89 19 53 7 -27 19 -28 26 -3 6 26 -7 45 -27 38 -9 -4 -16 -3 -16 2 0 9
-25 10 -38 2z"/>
<path d="M1135 480 c-3 -5 -19 -7 -35 -3 l-30 6 0 -76 c0 -42 4 -78 8 -81 19
-11 31 13 34 67 4 72 23 75 24 4 2 -76 2 -76 24 -70 17 5 20 13 19 60 -1 30 3
59 10 66 12 12 14 -5 11 -75 -2 -46 5 -58 28 -51 17 4 19 24 13 139 -1 16 -37
24 -49 12 -6 -6 -17 -6 -30 1 -13 7 -23 8 -27 1z"/>
<path d="M586 282 c-3 -5 1 -9 9 -9 8 0 12 4 9 9 -3 4 -7 8 -9 8 -2 0 -6 -4
-9 -8z"/>
<path d="M630 280 c0 -5 5 -10 11 -10 5 0 7 5 4 10 -3 6 -8 10 -11 10 -2 0 -4
-4 -4 -10z"/>
<path d="M726 282 c-3 -5 1 -9 9 -9 8 0 15 4 15 9 0 4 -4 8 -9 8 -6 0 -12 -4
-15 -8z"/>
<path d="M846 282 c-3 -5 1 -9 9 -9 8 0 15 4 15 9 0 4 -4 8 -9 8 -6 0 -12 -4
-15 -8z"/>
<path d="M906 278 c3 -4 9 -8 15 -8 5 0 9 4 9 8 0 5 -7 9 -15 9 -8 0 -12 -4
-9 -9z"/>
<path d="M970 280 c0 -5 5 -10 11 -10 5 0 7 5 4 10 -3 6 -8 10 -11 10 -2 0 -4
-4 -4 -10z"/>
<path d="M1030 280 c0 -5 5 -10 11 -10 5 0 7 5 4 10 -3 6 -8 10 -11 10 -2 0
-4 -4 -4 -10z"/>
<path d="M1166 282 c-3 -5 1 -9 9 -9 8 0 15 4 15 9 0 4 -4 8 -9 8 -6 0 -12 -4
-15 -8z"/>
<path d="M1226 278 c3 -5 10 -6 15 -3 13 9 11 12 -6 12 -8 0 -12 -4 -9 -9z"/>
<path d="M377 201 c8 -48 10 -49 15 -3 2 25 -1 39 -8 39 -8 0 -10 -12 -7 -36z"/>
<path d="M419 202 c5 -34 6 -35 9 -8 2 16 0 32 -5 37 -5 5 -7 -7 -4 -29z"/>
<path d="M1044 228 c-10 -16 -11 -58 -2 -58 4 0 8 13 8 29 0 16 6 32 13 34 9
4 9 6 0 6 -6 1 -15 -4 -19 -11z"/>
<path d="M582 193 c-3 -44 3 -42 11 5 4 17 3 32 -1 32 -4 0 -9 -17 -10 -37z"/>
<path d="M614 211 c0 -11 4 -17 8 -15 4 3 8 12 8 20 0 8 -4 14 -8 14 -4 0 -8
-9 -8 -19z"/>
<path d="M833 210 c-1 -11 2 -20 7 -20 4 0 7 7 6 15 -3 23 -12 26 -13 5z"/>
<path d="M488 206 c-15 -11 -16 -15 -4 -32 8 -10 18 -16 22 -11 4 4 2 7 -4 7
-21 0 -13 19 10 22 18 2 19 5 7 15 -11 9 -18 8 -31 -1z"/>
<path d="M777 213 c-4 -3 -6 -22 -6 -42 l1 -36 8 40 c8 42 8 49 -3 38z"/>
<path d="M1208 193 c5 -21 7 -23 10 -9 2 10 0 22 -6 28 -6 6 -7 0 -4 -19z"/>
<path d="M447 190 c8 -30 21 -34 15 -5 -2 14 -8 25 -12 25 -5 0 -6 -9 -3 -20z"/>
<path d="M640 191 c0 -11 3 -22 8 -24 4 -3 7 6 7 19 0 13 -3 24 -7 24 -5 0 -8
-9 -8 -19z"/>
<path d="M675 200 c-3 -5 -1 -10 4 -10 6 0 11 5 11 10 0 6 -2 10 -4 10 -3 0
-8 -4 -11 -10z"/>
<path d="M804 189 c0 -10 4 -19 8 -19 4 0 8 6 8 14 0 8 -4 17 -8 20 -4 2 -8
-4 -8 -15z"/>
<path d="M863 194 c-3 -9 0 -20 8 -25 22 -14 35 -10 14 4 -10 8 -15 19 -11 25
4 7 5 12 1 12 -3 0 -8 -7 -12 -16z"/>
<path d="M950 201 c0 -5 7 -12 16 -15 9 -3 12 -11 8 -18 -5 -10 -4 -10 6 -1
10 9 10 15 -3 27 -18 18 -27 20 -27 7z"/>
<path d="M1108 185 c2 -14 8 -23 12 -20 10 6 1 45 -10 45 -4 0 -5 -11 -2 -25z"/>
<path d="M1140 190 c0 -11 2 -20 4 -20 2 0 6 9 9 20 3 11 1 20 -4 20 -5 0 -9
-9 -9 -20z"/>
<path d="M1170 200 c0 -5 5 -10 10 -10 6 0 10 5 10 10 0 6 -4 10 -10 10 -5 0
-10 -4 -10 -10z"/>
<path d="M1239 202 c7 -5 10 -15 7 -21 -4 -6 -2 -11 4 -11 17 0 8 33 -10 37
-12 4 -13 3 -1 -5z"/>
<path d="M701 184 c0 -11 3 -14 6 -6 3 7 2 16 -1 19 -3 4 -6 -2 -5 -13z"/>
<path d="M1080 179 c0 -5 5 -7 10 -4 6 3 10 8 10 11 0 2 -4 4 -10 4 -5 0 -10
-5 -10 -11z"/>
</g>
</svg>
